PathFileType	4	(X/Y/Z)	Patient4_TMGait_0pt6_01_left_35.trc.trc
DataRate	CameraRate	NumFrames	NumMarkers	Units	OrigDataRate	OrigDataStartFrame	OrigNumFrames
78.212290502793	78.212290502793	6	33	mm	78.212290502793	1	       141
Frame#	Time	Sacral			L.Shoulder			Chest			R.Shoulder			Neck			R.ASIS			L.ASIS			R.Thigh.Superior			R.Thigh.Lateral			R.Thigh.Inferior			R.Patella			L.Thigh.Superior			L.Thigh.Lateral			L.Thigh.Inferior			L.Patella			L.Shank.Superior			L.Shank.Lateral			L.Shank.Inferior			R.Shank.Superior			R.Shank.Lateral			R.Shank.Inferior			R.Heel			R.Midfoot.Superior			R.Midfoot.Lateral			R.Toe			L.Heel			L.Midfoot.Lateral			L.Midfoot.Superior			L.Toe			L.Elbow			L.Wrist			R.Elbow			R.Wrist			
		X1	Y1	Z1	X2	Y2	Z2	X3	Y3	Z3	X4	Y4	Z4	X5	Y5	Z5	X6	Y6	Z6	X7	Y7	Z7	X8	Y8	Z8	X9	Y9	Z9	X10	Y10	Z10	X11	Y11	Z11	X12	Y12	Z12	X13	Y13	Z13	X14	Y14	Z14	X15	Y15	Z15	X16	Y16	Z16	X17	Y17	Z17	X18	Y18	Z18	X19	Y19	Z19	X20	Y20	Z20	X21	Y21	Z21	X22	Y22	Z22	X23	Y23	Z23	X24	Y24	Z24	X25	Y25	Z25	X26	Y26	Z26	X27	Y27	Z27	X28	Y28	Z28	X29	Y29	Z29	X30	Y30	Z30	X31	Y31	Z31	X32	Y32	Z32	X33	Y33	Z33	

1	42.530000000000	772.520291188196	1003.318385018515	500.972236557710	916.712285216954	1446.211137774066	331.348858771533	1033.457805141773	1372.386795290850	480.741806026701	960.023683805784	1430.577838353797	663.697723585792	908.177123716694	1496.682516284850	490.016008030816	1004.563403849136	946.046335860095	608.131647875588	982.022617978876	968.383170735158	334.179602285106	1045.661943794601	743.655255622451	583.274360781687	963.332919037375	633.802203532505	639.463807298775	1044.110789869693	582.673798308284	561.768341642270	1043.082546510493	492.679235839409	567.624687003111	1056.891452423918	772.088273438411	350.997440355285	995.627886541610	645.991477249249	280.794009742952	1104.386446135731	580.384883883672	326.716616488344	1112.963665292770	490.903377756998	320.585558722417	1046.793427354464	424.329330517041	321.715360253771	901.407105258930	378.985371212662	289.084648590181	897.938579260104	249.994384395828	345.161233051216	1011.461360525757	404.284341758335	571.984761071519	933.629184697162	301.092434972540	625.647420200264	979.354089843171	206.642974267902	564.772060727331	845.857363762304	42.073367844281	523.241082830520	1015.291234737476	97.519715577867	566.688085195980	925.842293634924	36.335581720946	601.562877918386	1133.847806887411	47.148462747537	598.937586226905	712.640840421049	174.164919856670	404.641038446097	762.742685260554	139.772683635477	314.107592951573	869.391557771226	152.920385794468	323.700479478915	949.615404482248	49.575708486425	275.779104166607	914.500361413558	1093.854419836898	204.175119792883	1109.451612378474	917.846967049636	207.995846353071	964.862139221494	1075.300024785183	770.812751370794	1090.374686573596	844.917117452119	767.745679835088	
2	42.542785714286	771.545777766446	1003.902511290886	502.903400070307	914.870944684261	1446.080275328043	332.019760510408	1033.000797564355	1372.573029245990	480.366137544788	961.504179816574	1431.345922787637	663.874372431339	908.000901701426	1496.997140353624	490.451192278127	1004.112223341610	945.875877179996	608.116624249323	978.905073951385	968.873497538931	334.817972766691	1042.592440029194	742.889524340710	581.871084201922	959.784063216634	633.742062823067	639.228251746351	1038.633264996537	581.885972325439	560.676111547592	1036.699358672393	492.142969436041	566.515385138322	1057.320281901295	775.586616186117	352.455265209378	999.249939376808	648.854981338799	281.375263987683	1107.808796289333	584.615382583466	328.670010675677	1118.496765382422	496.289044133357	322.254342401629	1055.811146321811	427.904141718941	322.082711347509	914.394863730379	374.902986445868	287.117295483777	917.763582401559	245.909823364511	342.503709818026	1005.098749116935	403.815140795160	571.109697457239	927.327207977213	300.902588951154	625.353366257435	972.145930798554	206.276374989696	564.066872703546	837.657029927018	42.123128419908	523.023916931131	1007.158945928379	97.301571159935	566.452886853469	917.729332907881	36.415574610793	601.544015544423	1125.774595711219	46.705307606468	599.026651035656	737.591410004040	159.475165347802	398.968645404712	790.372395887510	128.698439946226	309.033404189994	895.452113072394	147.834859978385	320.144582406406	981.678858649000	49.932588450850	273.070466411679	907.564138478587	1093.036122461212	206.910174739293	1087.496446447063	904.429363777494	209.991703173938	977.502712668932	1077.486390205862	772.503763996331	1116.408505457573	856.686662275887	767.198933558033	
3	42.555571428571	770.569370870454	1004.447721524163	504.783532795523	913.082863057975	1445.907623560777	332.643093188486	1032.564838431130	1372.707323202103	479.965174855454	962.980055899783	1432.059813124054	664.014623285532	907.850348510882	1497.271373626293	490.835542029245	1003.649606429322	945.679464688922	608.100407241202	975.896370336684	969.350741729337	335.418104281566	1039.554201144189	742.118747692658	580.445974992235	956.311238939363	633.659893865477	638.998942365992	1033.230503724322	581.097773573270	559.578282849636	1030.412513295379	491.597015757420	565.406520927317	1057.671570866315	778.908566114600	353.932722426034	1002.673866651304	651.594582002649	281.967442119827	1110.931168642652	588.617621517466	330.700108535397	1123.712332960774	501.512167236218	323.951504184162	1064.549272698790	431.402657992689	322.448493940987	927.268516746978	370.749369602291	285.156522741021	937.579453472959	241.858454687224	339.845105603509	998.817488905084	403.334171739225	570.231954785162	921.113816261850	300.700344179661	625.069537545750	965.007864172327	205.902226203439	563.360842880674	829.535647397413	42.171483567543	522.822646416972	999.096327296390	97.090002338310	566.222472017507	909.682580962767	36.490696374954	601.521891278895	1117.765772782312	46.266125221335	599.110207307673	762.792224442271	144.812120753041	393.325122472227	818.177371051601	117.746955050149	303.979035124334	921.584053276950	142.870815017021	316.605608102662	1013.746159103523	50.535649353675	270.346780493944	900.719744245690	1092.177871887018	209.637484973286	1065.513998021331	891.328157959637	211.963159020551	989.950625126879	1079.686138044927	774.149873070344	1142.126110431260	868.645789861674	766.545553871950	
4	42.568357142857	769.595396242085	1004.924636402865	506.569093460378	911.410667515973	1445.659309606708	333.165312420800	1032.177912784953	1372.743726822122	479.508711872290	964.451454123598	1432.674978748819	664.073548316725	907.756737551887	1497.469689311572	491.116923923425	1003.172189412293	945.433855606676	608.075256084626	973.083075211572	969.790780110133	335.940908572044	1036.577496042002	741.332488383279	579.004759594000	952.959070274645	633.536736068996	638.779873266463	1027.956724078701	580.305548045166	558.480702178636	1024.286808860077	491.032265176105	564.303129230749	1057.838272284249	781.873072166526	355.420243552606	1005.683487442163	654.088532809040	282.551156572077	1113.475654503631	592.185152083978	332.823155192871	1128.304410917492	506.425078848698	325.676250103093	1072.737212450509	434.766344862391	322.804995065590	939.914608610177	366.509565364044	283.224204009919	957.331677896624	237.953708026372	337.220080805075	992.666690773599	402.833511259974	569.356032940908	915.038449294199	300.479242005480	624.804395575754	957.978410887953	205.517361687306	562.659996131775	821.541083967766	42.216728519265	522.653022238102	991.141875753455	96.888356982127	565.996105489015	901.739897143797	36.557345191158	601.495235028381	1109.858254805487	45.838465916277	599.183662799151	788.419737115288	130.354573039817	387.795824144404	846.273483393382	107.141054290260	299.038048095093	947.792563589673	138.233107754911	313.156643824912	1045.733470952367	51.690647093095	267.703592966086	894.029080193975	1091.267772625408	212.326874053899	1043.509720072289	878.911618212828	213.894698207297	1002.025500882391	1081.917411495527	775.677104209826	1167.165376891364	881.058405817310	765.645592604995	
5	42.581142857143	768.629125668376	1005.314785432704	508.226790358293	909.909363506185	1445.309713930112	333.540757625146	1031.866327145295	1372.645785150244	478.969628612569	965.922650004865	1433.158763065420	664.010652222925	907.748935296761	1497.565435544100	491.250737698407	1002.678712733545	945.120992020946	608.033758911213	970.515393237356	970.160550837319	336.360019735823	1033.687596523190	740.519421615364	577.571062433833	949.746159863373	633.359014476573	638.576657682199	1022.842876000266	579.502544780848	557.398111749401	1018.352448121115	490.440271375465	563.216795518381	1057.721355284193	784.329188385420	356.898495847900	1008.084539969701	656.238279107352	283.091481078979	1115.216534782079	595.157090795524	335.026941216775	1132.031011766200	510.919339581954	327.414423935433	1080.167621650128	437.962914267662	323.146190131988	952.275740897818	362.190103295264	281.330502252682	976.994285527045	234.330502057849	334.676436143037	986.664388819746	402.307843564564	568.493634143312	909.111638407429	300.236316632004	624.565302982439	951.063187450326	205.121170203173	561.975274899396	813.684023457193	42.256809795718	522.526096450487	983.303190852690	96.701909463695	565.778748379412	893.907156703968	36.612583272483	601.464794890280	1102.057227366344	45.430405976194	599.243589044454	814.641971644374	116.312258577432	382.459788350645	874.798196963425	97.109746448663	294.315120078000	974.111019960393	134.136492713177	309.892633531593	1077.602249110710	53.695645034095	265.301562774737	887.515424764291	1090.305865800042	214.948415957238	1021.463141898925	867.492201420790	215.782191672611	1013.603702672784	1084.198089218491	777.013788563372	1191.250347985525	894.195634157167	764.366349490887	
6	42.593928571429	767.678980154648	1005.612600914432	509.734578926727	908.623525369046	1444.845679110464	333.735118804222	1031.652842311408	1372.391408482271	478.327258134638	967.399357277584	1433.494042267190	663.793666376047	907.850506542812	1497.544018052114	491.204243962760	1002.172249745643	944.730835329213	607.968738996834	968.208111478623	970.423432078028	336.661893805044	1030.905874533737	739.669437753678	576.186699444667	946.666226767320	633.120292720893	638.395507877986	1017.900180493582	578.681051459526	556.354683137554	1012.609454344510	489.815997370610	562.165953020625	1057.240158470581	786.170393094722	358.335700738771	1009.722643345877	657.976157938564	283.539157354000	1116.006336045788	597.433622514288	337.263905846902	1134.736541663769	514.930773716990	329.135325489529	1086.706529325558	440.984228339277	323.467488922766	964.330601535623	357.830131330970	279.479365146237	996.528680838357	231.140064124156	332.277085284183	980.803238730934	401.756139583329	567.662743701158	903.312500491374	299.973279933743	624.357986275742	944.244763627406	204.716115883843	561.321702124931	805.949114269944	42.289847476104	522.447024748727	975.567670311959	96.536933775904	565.579885715450	886.169427075022	36.654435342793	601.433194921632	1094.347580846144	45.050463866042	599.288136583741	841.537808283964	102.936679941106	377.396987400138	903.829276932943	87.885337882112	289.928781799667	1000.536819026892	130.791526103585	306.928613944406	1109.291250843565	56.803173417467	263.356095789204	881.171002858221	1089.308459182520	217.468925120975	999.375247695172	857.315798195362	217.630190972082	1024.611370483838	1086.540134374544	778.093227604196	1214.171953661846	908.286959700289	762.596332705796	
